<svg xmlns="http://www.w3.org/2000/svg" xmlns:xlink="http://www.w3.org/1999/xlink" width="127.9" height="33.8" viewBox="0 0 127.9 33.8"><path fill="none" d="M0 0h127.9v33.8H0z"/><path fill="#73C167" d="M20.7 20.6c4-2 6-6 6-9.7C26.7 5 22.5 0 15.5 0H7.4v6.2h6.9c2.6 0 4.8 1.9 4.8 4.7 0 2.9-2.1 4.7-4.8 4.7H7.4v6.2h5l8.5 12h9l-9.2-13.2z"/><path fill="#BDDEB1" d="M0 6.2h7.4v27.6H0z"/><path fill="#008852" d="M0 21.8h7.4v-6.2zM7.4 0L0 6.2h7.4z"/><defs><path id="a" d="M0 0h127.9v33.8H0z"/></defs><clipPath id="b"><use xlink:href="#a" overflow="visible"/></clipPath><path clip-path="url(#b)" fill="#231F20" d="M51 15.8c-3 0-5.2-2.3-5.2-5.2s2.3-5 5.1-5c2.9 0 5.1 2.2 5.1 5s-2.2 5.2-5 5.2m0-8c-1.7 0-2.6 1.3-2.6 2.8 0 1.5.9 2.9 2.5 2.9 1.7 0 2.6-1.4 2.6-2.9s-1-2.8-2.6-2.8M62.6 15.8c-2.9 0-5.1-2.3-5.1-5.2s2.2-5 5.1-5c2.9 0 5 2.2 5 5s-2.1 5.2-5 5.2m0-8C61 7.8 60 9 60 10.6c0 1.5 1 2.9 2.6 2.9 1.7 0 2.5-1.4 2.5-2.9s-.9-2.8-2.5-2.8M80 15.6v-10h7.4V8h-4.8v1.5h4.6v2.2h-4.6v1.8h4.8v2.2zM95.8 15.6H93l-3.7-10h2.6l2.5 7 2.5-7h2.6zM101.4 15.6v-10h7.4V8H104v1.5h4.7v2.2h-4.7v1.8h5v2.2zM111.7 15.6v-10h2.6v7.8h4.7v2.2zM124.7 8v7.6h-2.5V8h-3.3V5.7h9V8zM42 15.6l-2.5-3.4h-1.8v3.4H35v-10h5.6c2 0 3.3 1.5 3.3 3.3 0 1.2-.6 2.4-1.7 3l2.8 3.7H42zm-1.7-7.9h-2.6v2.5h2.6c.6 0 1.2-.5 1.2-1.2s-.5-1.3-1.2-1.3M73.3 15.8c-1.4 0-2.8-.3-4.2-.9l.4-2c1.3.4 2.6.7 3.8.7 1.1 0 1.8-.2 1.8-.9 0-.4-.7-.5-2.3-1.2-2-.8-3.3-1.4-3.3-3.2 0-1.9 1.3-2.8 4.2-2.8 1.2 0 2.6.2 3.7.5L77 8l-3.3-.3c-1.4 0-1.7.2-1.7.7 0 .4.7.6 2.5 1.3 2 .7 3 1 3 3 0 1.9-1.5 3-4.2 3M39.3 29.3c-2.6 0-4-1.9-4-3.9v-6.2h1.3v6.2c0 1.7 1.1 2.7 2.7 2.7s2.7-1 2.7-2.7v-6.2h1.4v6.2c0 2-1.5 3.9-4 3.9M53.8 29L48 21.4V29h-1.3v-9.9H48l5.8 7.8v-7.8h1.4v9.9zM58.7 19.2h1.4v9.9h-1.4zM68 29h-1.3l-4.2-9.8H64l3.4 8.2 3.4-8.2h1.4zM74.3 29v-9.8H81v1.2h-5.4v3h5v1.2h-5v3.3H81v1.2zM105 19.2h1.4v9.9H105zM123.9 25.1v4h-1.4v-4l-3.8-5.9h1.4l3 4.7 3.1-4.7h1.4zM113.7 20.4v8.7h-1.4v-8.7H109v-1.1h8v1.1zM91.5 29l-3-4h-3v4h-1.3v-9.8H89a3 3 0 0 1 3 3c0 1.2-.7 2.3-2 2.7l3 4.2h-1.5zm-2.7-8.7h-3.2V24h3.2c1.1 0 1.9-.8 1.9-1.8 0-1.1-.9-1.9-1.9-1.9M98.4 29.3c-1.3 0-2.5-.3-3.8-.8l.1-1c1.2.3 2.5.6 3.7.6 1.6 0 2.5-.6 2.5-1.5 0-.8-.5-1.2-2.7-2-2.6-1-3.4-1.6-3.4-3.2s1.3-2.3 3.7-2.3c1 0 2.5.2 3.5.5l-.3 1c-1-.2-2.1-.3-3.2-.3-1.7 0-2.4.2-2.4 1.1 0 1 .6 1.3 3 2.2 2.5 1 3.2 1.6 3.2 3 0 1.6-1.5 2.7-3.9 2.7"/></svg>