<?xml version="1.0" encoding="UTF-8"?>
<svg id="Layer_1" xmlns="http://www.w3.org/2000/svg" version="1.1" viewBox="0 0 220 40">
  <!-- Generator: Adobe Illustrator 29.0.0, SVG Export Plug-In . SVG Version: 2.1.0 Build 186)  -->
  <defs>
    <style>
      .st0 {
        fill: #007a33;
      }
    </style>
  </defs>
  <g id="UNT_Diving_Eagle_Side-by-Side">
    <g id="Eagle">
      <path class="st0" d="M33,34.2c-.3,0-.8,0-.8,0,0-.7-.9-1.7-.9-1.7,0,0,1.7,1.5,1.7,1.6,0,0,.6-1.1-.5-2.1-1.5-1.5-4.5-4.1-4.5-4.1.2.7,1.4,2.8.8,6.8l1.5.3.2.3s1.7.2,2,.5c0,0,.6.4,0,1,0,0,1-.2,1.5-.8,0,0,.5-.4,0-1l-.8-.9"/>
      <path class="st0" d="M24.9,24.8L3,4.5c-1-1-.6-2.3-.6-2.3l-1.8,3.9c-.5,1.3.2,2,.8,2.4.5.4,17.4,14.1,17.4,14.1v.6L2,10.3c-.8-.6-.7-1.7-.7-1.7L0,11.1c-.6,1.4.8,2.3,1.5,2.7.6.5,17.3,12.2,17.3,12.2v.7c0,0-16.1-10.8-16.7-11.2-.7-.4-.7-1.5-.7-1.5l-1.2,2.5c-.5,1,.9,1.7,1.5,2.2.4.3,9.5,5.7,17,10.1h-9.7c-1.4,0-1.9-.4-1.9-.4l1.3,1.2c.2.2.8.9,1.7.9h3.6l.7.3-3.2.2c-.6,0-.8,0-1.6-.3l1.4,1.3c.4.3.7.6,1.4.6.7,0,4.6-.7,4.6-.7l.6.3-4.1.9c-.9.2-1.6-.3-1.6-.3l1.3,1.3c.6.5,1,.8,2.7.3.7-.2,4-1.3,4-1.3l2.2.9c2.2,3,4.9,4.6,4.9,4.6-.5.7-.1,1.4-.1,1.4.4-.9,1.5-1.4,2.2-1.3.6,0,.5.9.5.8.4-.5.8-1.1.3-1.7-.5-.6-1.7,0-1.7,0l-1.3-2.2,1.7-1c.9-5.7-3.8-9.7-3.8-9.7"/>
      <path class="st0" d="M23.7,16.4c-.3-.3-10.4-11.7-10.4-11.7-.9-1-.6-1.7-.6-1.8l-1.2,2.7c-.3.7.2,1.2.6,1.6.4.4,11,11.5,11,11.5v.6c0,0-10.1-10-10.1-10-.8-.8-.6-1.5-.6-1.5l-1,2.4c-.2.8.6,1.3,1,1.7.6.6,11.8,11,12.7,11.9,2,1.8,2.9,4.1,2.9,4.1,1.2-5.7-3.2-10.2-4.3-11.5"/>
    </g>
    <g id="UNT">
      <path id="Path_1179" class="st0" d="M79,8.4l-2.1,5.8h3.2l.8-2.2h3.1v15.9h-1.7l-1.3,3.7h8.9l1.3-3.7h-2.5v-15.9h3.7v2.2h2.2l2.2-5.8h-17.8"/>
      <path id="Path_1180" class="st0" d="M41.9,12h2.3v10.4c0,1.9-.3,3-1.3,4-.9.8-2.1,1.3-3.3,1.2-1.4,0-2.8-.5-3.8-1.4-.8-.9-1.3-2.3-1.3-4.4v-13.4h-6.5l-1.4,3.6h2.8v9.9c0,9.4,7.3,10.1,9.5,10.1,5.8,0,9.5-3.7,9.5-9.5v-10.6h1.6l1.3-3.5h-8.2"/>
      <path id="Path_1181" class="st0" d="M74.9,12v19.6h-2.7s-12.8-13.5-13.6-14.3v10.7h2.5l-1.3,3.6h-8.3l1.3-3.6h1.4V12h-2.9l1.3-3.6h5.1s9.7,10.2,13.2,13.8v-10.1h-2.5l1.3-3.7h8.4l-1.3,3.7h-1.9"/>
    </g>
  </g>
  <path class="st0" d="M103.7,8.4h2.3v5.4c0,.9,0,1.6.5,2,.3.4.7.6,1.3.6s1-.2,1.3-.6.5-1,.5-2v-5.4h2.2v5.2c0,1.6-.3,2.8-1,3.5-.7.7-1.7,1.1-3,1.1s-2.3-.4-3-1.1-1-1.9-1-3.5v-5.2h-.1Z"/>
  <path class="st0" d="M114.1,8.4h2.3l2.6,4.8,1,2.1h0c0-.5,0-1.1-.2-1.7,0-.6,0-1.2,0-1.8v-3.4h2.2v9.6h-2.3l-2.6-4.8-1-2.1h0c0,.5,0,1.1.2,1.7,0,.6,0,1.2,0,1.8v3.4h-2.2v-9.6Z"/>
  <path class="st0" d="M124.4,8.4h2.3v9.6h-2.3v-9.6Z"/>
  <path class="st0" d="M127.8,8.4h2.4l1.2,4.5c.2.5.3,1,.4,1.5s.3,1,.4,1.5h.1c.1-.5.3-1,.4-1.5.1-.5.3-1,.4-1.5l1.2-4.5h2.3l-3,9.6h-2.7l-3.1-9.6Z"/>
  <path class="st0" d="M137.7,8.4h6.3v1.8h-4v1.9h3.4v1.9h-3.4v2.2h4.2v1.8h-6.5v-9.6Z"/>
  <path class="st0" d="M151.7,18.1l-1.9-3.5h-1.3v3.5h-2.3v-9.7h3.6c.5,0,1,0,1.5.1s.9.3,1.2.5.6.5.8.9.3.9.3,1.4-.2,1.3-.5,1.8-.8.8-1.3,1l2.3,3.9h-2.4ZM148.5,12.9h1.2c.6,0,1.1-.1,1.4-.4.3-.2.5-.6.5-1.1s-.2-.8-.5-1-.8-.3-1.4-.3h-1.2v2.8Z"/>
  <path class="st0" d="M156.2,15.4c.4.3.8.5,1.2.7s.9.3,1.3.3.8-.1,1.1-.3c.2-.2.3-.4.3-.7s0-.3-.1-.4-.2-.2-.3-.3-.3-.2-.5-.2c-.2-.1-.4-.2-.6-.2l-1.3-.5c-.3-.1-.5-.2-.8-.4-.2-.2-.5-.3-.7-.6-.2-.2-.3-.5-.5-.7s-.2-.6-.2-1,.1-.8.3-1.1.4-.7.7-.9c.3-.3.7-.5,1.1-.6.4-.1.9-.2,1.5-.2s1.2.1,1.7.3,1.1.5,1.5.9l-1.2,1.4c-.3-.2-.7-.4-1-.6-.3-.1-.7-.2-1.1-.2s-.7.1-.9.2c-.2.2-.3.4-.3.6s0,.3.1.4c.1.1.2.2.3.3s.3.2.5.2c.2.1.4.2.6.2l1.3.5c.6.2,1.1.6,1.5,1s.5,1,.5,1.6-.1.8-.3,1.1c-.2.4-.4.7-.7.9-.3.3-.7.5-1.2.7s-1,.2-1.6.2-1.3-.1-2-.3c-.7-.2-1.2-.6-1.8-1l1.6-1.3Z"/>
  <path class="st0" d="M164.2,8.4h2.3v9.6h-2.3v-9.6Z"/>
  <path class="st0" d="M170.8,10.3h-2.8v-1.9h7.9v1.8h-2.8v7.8h-2.3v-7.7h0Z"/>
  <path class="st0" d="M179.9,14.6l-3.1-6.2h2.5l.9,2.2c.1.4.3.7.4,1.1.1.3.3.7.4,1.1h.1c.1-.4.3-.7.4-1.1.1-.3.3-.7.4-1.1l.9-2.2h2.4l-3.1,6.2v3.4h-2.3v-3.4h.1Z"/>
  <path class="st0" d="M107.9,31.7c-.7,0-1.3-.1-1.9-.3s-1-.6-1.5-1-.7-1-.9-1.6c-.2-.6-.3-1.3-.3-2.1s0-1.5.3-2.1c.2-.6.5-1.1.9-1.6.4-.4.9-.7,1.5-1s1.2-.3,1.9-.3,1.3.1,1.9.3,1,.5,1.5,1c.4.4.7.9.9,1.6s.3,1.3.3,2.1,0,1.5-.3,2.1c-.2.6-.5,1.1-.9,1.6-.4.4-.9.8-1.5,1s-1.3.3-1.9.3ZM107.9,29.9c.7,0,1.2-.3,1.6-.8.4-.6.6-1.3.6-2.3s-.2-1.7-.6-2.3c-.4-.5-1-.8-1.6-.8s-1.2.3-1.6.8-.6,1.3-.6,2.3.2,1.7.6,2.3.9.8,1.6.8Z"/>
  <path class="st0" d="M114.4,21.9h6.4v1.8h-4.1v2.3h3.5v1.8h-3.5v3.7h-2.3v-9.6Z"/>
  <path class="st0" d="M125.7,21.9h2.3l2.6,4.8,1,2.1h.1c-.1-.5-.1-1.1-.2-1.7s-.1-1.2-.1-1.8v-3.4h2.2v9.6h-2.3l-2.6-4.8-1-2.1h0c0,.5,0,1.1.2,1.7s0,1.2,0,1.8v3.4h-2.2v-9.6Z"/>
  <path class="st0" d="M140.2,31.7c-.7,0-1.3-.1-1.9-.3-.6-.2-1-.6-1.5-1s-.7-1-.9-1.6-.3-1.3-.3-2.1.1-1.5.3-2.1.5-1.1.9-1.6c.4-.4.9-.7,1.5-1,.6-.2,1.2-.3,1.9-.3s1.3.1,1.9.3,1,.5,1.5,1c.4.4.7.9.9,1.6s.3,1.3.3,2.1-.1,1.5-.3,2.1-.5,1.1-.9,1.6c-.4.4-.9.8-1.5,1s-1.3.3-1.9.3ZM140.2,29.9c.7,0,1.2-.3,1.6-.8.4-.6.6-1.3.6-2.3s-.2-1.7-.6-2.3c-.4-.5-1-.8-1.6-.8s-1.2.3-1.6.8c-.4.5-.6,1.3-.6,2.3s.2,1.7.6,2.3.9.8,1.6.8Z"/>
  <path class="st0" d="M152.1,31.6l-1.9-3.5h-1.3v3.5h-2.3v-9.6h3.6c.5,0,1,0,1.5.1s.9.3,1.2.5c.4.2.6.5.8.9s.3.9.3,1.4-.2,1.3-.5,1.8-.8.8-1.3,1l2.3,3.9s-2.4,0-2.4,0ZM148.9,26.4h1.2c.6,0,1.1-.1,1.4-.4.3-.2.5-.6.5-1.1s-.2-.8-.5-1-.8-.3-1.4-.3h-1.2v2.8Z"/>
  <path class="st0" d="M157.9,23.8h-2.8v-1.8h7.9v1.8h-2.8v7.8h-2.3v-7.8h0Z"/>
  <path class="st0" d="M164.5,21.9h2.3v3.7h3.5v-3.7h2.3v9.6h-2.3v-4h-3.5v4h-2.3v-9.6Z"/>
  <path class="st0" d="M180.2,23.8h-2.8v-1.8h7.9v1.8h-2.8v7.8h-2.3v-7.8h0Z"/>
  <path class="st0" d="M186.8,21.9h6.3v1.8h-4v1.9h3.4v1.8h-3.4v2.2h4.2v1.8h-6.5v-9.5Z"/>
  <path class="st0" d="M197.1,26.6l-2.6-4.7h2.5l.9,1.8c.1.2.2.5.3.7.1.3.2.5.4.8h.1c.1-.3.2-.6.3-.8.1-.3.2-.5.3-.7l.8-1.8h2.4l-2.6,4.8,2.8,4.8h-2.5l-1-2c-.1-.3-.2-.5-.4-.8-.1-.3-.2-.5-.4-.8h-.1c-.1.3-.2.6-.3.8-.1.3-.2.5-.3.8l-.9,2h-2.5l2.8-4.9Z"/>
  <path class="st0" d="M208.8,29.3h-3.1l-.6,2.3h-2.3l3.2-9.6h2.7l3.2,9.6h-2.4l-.7-2.3ZM208.3,27.6l-.2-.9c-.1-.5-.3-1-.4-1.5-.1-.5-.3-1.1-.4-1.6h-.1c-.1.5-.3,1-.4,1.6-.1.5-.3,1-.4,1.5l-.2.9h2.1Z"/>
  <path class="st0" d="M213.6,29c.4.3.8.5,1.2.7s.9.3,1.3.3.8-.1,1.1-.3c.2-.2.3-.4.3-.7s0-.3-.1-.4-.2-.2-.3-.3-.3-.2-.5-.2c-.2-.1-.4-.2-.6-.2l-1.3-.5c-.3-.1-.5-.2-.8-.4-.2-.2-.5-.3-.7-.6-.2-.2-.3-.5-.5-.7-.1-.3-.2-.6-.2-1s.1-.8.3-1.1.4-.7.7-.9c.3-.3.7-.5,1.1-.6.4-.1.9-.2,1.5-.2s1.2.1,1.7.3,1.1.5,1.5.9l-1.2,1.4c-.3-.2-.7-.4-1-.6s-.7-.2-1.1-.2-.7.1-.9.2c-.2.2-.3.4-.3.6s0,.3.1.4.2.2.3.3.3.2.5.2c.2.1.4.2.6.2l1.3.5c.6.2,1.1.6,1.5,1s.5,1,.5,1.6-.1.8-.3,1.1c-.2.4-.4.7-.7.9-.3.3-.7.5-1.2.7s-1,.2-1.6.2-1.3-.1-2-.3c-.7-.2-1.2-.6-1.8-1l1.6-1.3Z"/>
</svg>