<?xml version="1.0" encoding="UTF-8"?>
<svg width="119px" height="30px" viewBox="0 0 119 30" version="1.1" xmlns="http://www.w3.org/2000/svg" xmlns:xlink="http://www.w3.org/1999/xlink">
    <!-- Generator: Sketch 54.1 (76490) - https://sketchapp.com -->
    <title>expatrio-logo copy</title>
    <desc>Created with Sketch.</desc>
    <g id="expatrio-logo-copy" stroke="none" stroke-width="1" fill="none" fill-rule="evenodd">
        <path d="M48.1795744,9.98443871 C45.4460689,9.98443871 43.9350654,12.1975417 43.9350654,14.8011916 C43.9350654,17.4048419 45.4460689,19.6179448 48.1795744,19.6179448 C50.8479965,19.6179448 52.6052503,17.4048419 52.6052503,14.8011916 C52.6052503,12.1975417 50.8479965,9.98443871 48.1795744,9.98443871 Z M43.6888155,20.3339486 L43.6888155,29.1821156 C43.6888155,29.6338207 43.3226362,30 42.8709311,30 L41.9152911,30 L40.959651,30 C40.5079459,30 40.1417666,29.6338207 40.1417666,29.1821156 L40.1417666,8.03594493 C40.1417666,7.5842398 40.5079459,7.21806052 40.959651,7.21806052 L42.8709311,7.21806052 C43.3226362,7.21806052 43.6888155,7.5842398 43.6888155,8.03594493 L43.6888155,9.2684349 C44.6325258,7.73879051 46.6175715,6.82751287 48.374825,6.82751287 C52.9957508,6.82751287 56.1522991,10.5051687 56.1522991,14.8011916 C56.1522991,19.0972145 52.9957508,22.7748707 48.374825,22.7748707 C46.6175715,22.7748707 44.6325258,21.863593 43.6888155,20.3339486 Z M64.6826339,19.6179448 C67.4161394,19.6179448 69.3602676,17.4048419 69.3602676,14.8011916 C69.3602676,12.1975417 67.4161394,9.98443871 64.6826339,9.98443871 C62.0142118,9.98443871 60.2569583,12.1975417 60.2569583,14.8011916 C60.2569583,17.4048419 62.0142118,19.6179448 64.6826339,19.6179448 Z M69.6969402,9.2684349 L69.6969402,8.03594493 C69.6969402,7.5842398 70.0631195,7.21806052 70.5148246,7.21806052 L72.4261047,7.21806052 C72.8778098,7.21806052 73.2439891,7.5842398 73.2439891,8.03594493 L73.2439891,21.5664386 C73.2439891,22.0181437 72.8778098,22.384323 72.4261047,22.384323 L70.5148246,22.384323 C70.0631195,22.384323 69.6969402,22.0181437 69.6969402,21.5664386 L69.6969402,20.3339486 C68.7532299,21.863593 66.7681842,22.7748707 65.0109308,22.7748707 C60.3900049,22.7748707 57.2334566,19.0972145 57.2334566,14.8011916 C57.2334566,10.5051687 60.3900049,6.82751287 65.0109308,6.82751287 C66.7681842,6.82751287 68.7532299,7.73879051 69.6969402,9.2684349 Z M74.5678384,9.36182814 L74.5678384,8.03594493 C74.5678384,7.5842398 74.9340177,7.21806052 75.3857228,7.21806052 L77.1386352,7.21806052 L77.1386352,3.44701145 C77.1386352,2.99530632 77.5048145,2.62912704 77.9565196,2.62912704 L79.8677997,2.62912704 C80.3195048,2.62912704 80.6856841,2.99530632 80.6856841,3.44701145 L80.6856841,7.21806052 L83.3497652,7.21806052 C83.80147,7.21806052 84.1676496,7.5842398 84.1676496,8.03594493 L84.1676496,9.36182814 C84.1676496,9.81353326 83.80147,10.1797125 83.3497652,10.1797125 L80.6856841,10.1797125 L80.6856841,16.4284731 C80.6856841,19.0646689 81.4992275,19.3901254 82.898522,19.3901254 C83.2224923,19.3901254 83.5464625,19.3901254 83.8704327,19.3901254 L83.8704327,19.3901254 C84.3221378,19.3901254 84.6883171,19.7563047 84.6883171,20.2080098 L84.6883171,21.7617124 C84.6883171,22.2134176 84.3221378,22.5795968 83.8704327,22.5795968 C83.264434,22.5795968 82.6584357,22.5795968 82.052437,22.5795968 C80.3277252,22.5795968 77.1386352,22.3517774 77.1386352,17.242114 L77.1386352,10.1797125 L75.3857228,10.1797125 C74.9340177,10.1797125 74.5678384,9.81353326 74.5678384,9.36182814 Z M95.8408495,7.96729237 L95.8408495,9.62114002 C95.8408495,10.0728451 95.4746702,10.4390244 95.0229651,10.4390244 C94.9961068,10.4390244 94.9692651,10.4377014 94.942537,10.4350603 C94.7592438,10.4169481 94.5922498,10.4078918 94.441555,10.4078918 C91.4151739,10.4078918 89.7555455,12.1328104 89.7555455,15.9081029 L89.7555455,21.63189 C89.7555455,22.0835951 89.3893662,22.4497744 88.9376611,22.4497744 L87.026381,22.4497744 C86.5746759,22.4497744 86.2084966,22.0835951 86.2084966,21.63189 L86.2084966,8.10139597 C86.2084966,7.64969084 86.5746759,7.28351156 87.026381,7.28351156 L88.9376611,7.28351156 C89.3893662,7.28351156 89.7555455,7.64969084 89.7555455,8.10139597 L89.7555455,9.72443391 C90.4389219,8.32497186 92.4239676,7.08823806 94.441555,7.08823806 C94.6519917,7.08823806 94.8942121,7.11296172 95.1682165,7.16240938 L95.1682165,7.16240938 C95.5576037,7.23267906 95.8408495,7.57161527 95.8408495,7.96729237 Z M97.3263278,21.5664386 L97.3263278,8.03594493 C97.3263278,7.5842398 97.6925071,7.21806052 98.1442122,7.21806052 L100.055492,7.21806052 C100.507197,7.21806052 100.873377,7.5842398 100.873377,8.03594493 L100.873377,21.5664386 C100.873377,22.0181437 100.507197,22.384323 100.055492,22.384323 L98.1442122,22.384323 C97.6925071,22.384323 97.3263278,22.0181437 97.3263278,21.5664386 Z M96.4802427,2.63619586 C96.4802427,1.17164264 97.651745,0 99.0835812,0 C100.547959,0 101.719462,1.17164264 101.719462,2.63619586 C101.719462,4.06820349 100.547959,5.23984613 99.0835812,5.23984613 C97.651745,5.23984613 96.4802427,4.06820349 96.4802427,2.63619586 Z M110.653577,19.6179448 C113.387083,19.6179448 115.144336,17.4048419 115.144336,14.8011916 C115.144336,12.1975417 113.387083,9.98443871 110.653577,9.98443871 C107.985155,9.98443871 106.227901,12.1975417 106.227901,14.8011916 C106.227901,17.4048419 107.985155,19.6179448 110.653577,19.6179448 Z M110.653577,22.7748707 C105.837401,22.7748707 102.680852,19.0972145 102.680852,14.8011916 C102.680852,10.5051687 105.837401,6.82751287 110.653577,6.82751287 C115.534837,6.82751287 118.691385,10.5051687 118.691385,14.8011916 C118.691385,19.0972145 115.534837,22.7748707 110.653577,22.7748707 Z" id="path-1" fill="#000000" fill-rule="nonzero"></path>
        <path d="M17.2737186,2.97709924 L37.1562085,2.97709924 C37.8247318,2.97709924 38.3666774,3.51904449 38.3666774,4.18756816 L38.3666774,25.2562704 C38.3666774,25.9247941 37.8247318,26.4667394 37.1562085,26.4667394 L17.2737186,26.4667394 C16.605195,26.4667394 16.0632497,25.9247941 16.0632497,25.2562704 L16.0632497,4.18756816 C16.0632497,3.51904449 16.605195,2.97709924 17.2737186,2.97709924 Z M20.7582874,6.87281221 C20.6869868,6.87281221 20.6170318,6.8922301 20.5559326,6.92898157 C20.3701358,7.04073926 20.3101148,7.28195463 20.4218725,7.46775147 L24.7924197,14.7337865 L20.4203172,21.5770773 C20.3799903,21.6401977 20.3585621,21.7135374 20.3585621,21.7884406 C20.3585621,22.0052591 20.5343284,22.1810251 20.7511466,22.1810251 L24.6742096,22.1810251 C25.9154159,19.8168222 26.9793072,17.8368026 27.3634901,17.0388841 L27.3930429,17.0388841 C27.8658834,17.92546 28.7229069,19.580402 30.0823233,22.1810251 L34.166769,22.1810251 C34.2395032,22.1810251 34.310807,22.1608194 34.372728,22.1226612 C34.5573131,22.0089134 34.6147377,21.7670666 34.50099,21.5824816 L29.9345607,14.1722882 L34.4126601,7.58841592 C34.4643294,7.51244951 34.4919589,7.42270011 34.4919589,7.33082748 C34.4919589,7.07787252 34.2868986,6.87281221 34.0339436,6.87281221 L30.2005335,6.87281221 C28.9593272,9.05969967 28.013646,10.7441941 27.4817002,11.6898752 L27.4521478,11.6898752 C27.0088597,10.891957 26.358704,9.76896052 24.7628673,6.87281221 L20.7582874,6.87281221 Z" id="Combined-Shape" fill="#41AB9E" fill-rule="nonzero"></path>
        <path d="M11.3259422,17.7294638 L13.8086385,17.7294631 C14.0625641,17.7294631 14.2684112,17.9353103 14.2684112,18.1892359 C14.2684112,18.2351859 14.261523,18.2808769 14.2479759,18.3247848 C14.2479759,18.3247848 14.2479759,18.3247848 14.2479759,18.3247848 C13.522145,20.6773276 11.1657357,22.6717557 7.58850033,22.6717557 C2.47521887,22.6717557 0,18.8349766 0,14.7055616 C0,10.1534506 2.70319956,6.7393675 7.49079422,6.7393675 C11.4316034,6.7393675 14.525627,9.69823969 14.525627,13.567534 C14.525627,13.980068 14.525627,14.5152746 14.4444308,15.2055785 C14.4444308,15.2055785 14.4444308,15.2055785 14.4444308,15.2055785 L14.4444308,15.2055785 C14.405999,15.5323138 14.1290905,15.7785602 13.8001024,15.7785602 L3.61512236,15.7785592 C3.64769117,17.9570696 4.72245736,19.7128835 7.58850033,19.7128835 C9.29220654,19.7128835 10.0917,19.0647733 10.573835,18.2177342 C10.5835884,18.2005992 10.5938817,18.1819031 10.604715,18.1616457 L10.604715,18.1616457 C10.7470031,17.8955807 11.0242194,17.7294638 11.3259422,17.7294638 Z M7.39308811,9.69823969 C5.46965333,9.69823969 3.90674624,10.7226677 3.67683566,12.7715238 C3.67683566,12.7715238 3.67683566,12.7715238 3.67683566,12.7715238 L3.67683566,12.7715238 C3.64714253,13.0361339 3.8375807,13.2747141 4.10219117,13.3044069 C4.12004231,13.30641 4.1379916,13.3074141 4.15595496,13.3074141 L10.5640871,13.3074128 C10.8305136,13.3074128 11.0464947,13.0914317 11.0464947,12.8250052 C11.0464947,12.8066149 11.0454432,12.7882394 11.0433451,12.7699691 C11.0433451,12.7699691 11.0433451,12.7699691 11.0433451,12.7699691 C10.8197542,10.8229338 9.3674506,9.69823969 7.39308811,9.69823969 Z" id="path-2" fill="#000000" fill-rule="nonzero"></path>
    </g>
</svg>