<svg width="51" height="50" viewBox="0 0 51 50" fill="none" xmlns="http://www.w3.org/2000/svg">
<g clip-path="url(#clip0_5348_734)">
<path d="M18.318 1.64127C13.3222 3.37435 9.01383 6.6638 6.02573 11.0264C3.03764 15.3891 1.5273 20.595 1.71656 25.8794C1.90582 31.1639 3.78471 36.2484 7.07724 40.3861C10.3698 44.5238 14.9024 47.4966 20.0094 48.8678C24.1497 49.9362 28.4875 49.9831 32.65 49.0046C36.4208 48.1576 39.9069 46.3458 42.7672 43.7467C45.7441 40.959 47.9048 37.4127 49.0172 33.4889C50.2262 29.222 50.4414 24.7348 49.6461 20.3717H26.3961V30.0163H39.8609C39.5918 31.5545 39.0151 33.0226 38.1654 34.3328C37.3157 35.643 36.2104 36.7682 34.9156 37.6413C33.2714 38.7289 31.4179 39.4607 29.4742 39.7897C27.5248 40.1522 25.5252 40.1522 23.5758 39.7897C21.5999 39.3812 19.7308 38.5657 18.0875 37.3952C15.4474 35.5264 13.4651 32.8714 12.4234 29.8092C11.3641 26.6897 11.3641 23.3077 12.4234 20.1881C13.1649 18.0015 14.3907 16.0106 16.0094 14.3639C17.8617 12.445 20.2068 11.0733 22.7873 10.3994C25.3679 9.72548 28.0842 9.77538 30.6383 10.5436C32.6335 11.1561 34.458 12.2262 35.9664 13.6686C37.4846 12.1582 39.0003 10.6439 40.5133 9.12565C41.2945 8.30924 42.1461 7.5319 42.9156 6.69596C40.6131 4.55329 37.9105 2.88603 34.9625 1.78971C29.5941 -0.159547 23.7202 -0.211932 18.318 1.64127Z" fill="white"/>
<path d="M18.318 1.64122C23.7198 -0.213246 29.5937 -0.16224 34.9625 1.78575C37.911 2.88951 40.6124 4.56481 42.9117 6.71544C42.1305 7.55137 41.3062 8.33262 40.5094 9.14512C38.9937 10.6581 37.4794 12.166 35.9664 13.6686C34.458 12.2261 32.6335 11.156 30.6383 10.5436C28.0851 9.77263 25.3688 9.71984 22.7876 10.391C20.2063 11.0621 17.8598 12.4313 16.0055 14.3482C14.3868 15.9949 13.161 17.9858 12.4195 20.1725L4.32187 13.9029C7.22034 8.15513 12.2389 3.7585 18.318 1.64122Z" fill="#E33629"/>
<path d="M2.17342 20.1138C2.60866 17.9567 3.33125 15.8678 4.32186 13.9028L12.4195 20.188C11.3602 23.3075 11.3602 26.6895 12.4195 29.8091C9.7216 31.8924 7.02238 33.9862 4.32186 36.0903C1.84198 31.1541 1.08566 25.5298 2.17342 20.1138Z" fill="#F8BD00"/>
<path d="M26.3961 20.3677H49.6461C50.4414 24.7307 50.2262 29.2179 49.0172 33.4849C47.9048 37.4086 45.7441 40.955 42.7672 43.7427C40.1539 41.7036 37.5289 39.6802 34.9156 37.6411C36.2112 36.7672 37.3171 35.6407 38.1668 34.3291C39.0166 33.0176 39.5928 31.5479 39.8609 30.0083H26.3961C26.3922 26.7974 26.3961 23.5825 26.3961 20.3677Z" fill="#587DBD"/>
<path d="M4.31796 36.0903C7.01848 34.007 9.7177 31.9132 12.4156 29.8091C13.4594 32.8724 15.4445 35.5274 18.0875 37.395C19.736 38.5601 21.6091 39.369 23.5875 39.77C25.5369 40.1325 27.5365 40.1325 29.4859 39.77C31.4297 39.441 33.2831 38.7092 34.9273 37.6216C37.5406 39.6606 40.1656 41.6841 42.7789 43.7231C39.9191 46.3236 36.4329 48.1367 32.6617 48.9849C28.4992 49.9634 24.1614 49.9165 20.0211 48.8481C16.7465 47.9738 13.6878 46.4325 11.0367 44.3208C8.2307 42.093 5.93888 39.2855 4.31796 36.0903Z" fill="#319F43"/>
</g>
<defs>
<clipPath id="clip0_5348_734">
<rect width="50" height="50" fill="white" transform="translate(0.899994 -0.00341797)"/>
</clipPath>
</defs>
</svg>
